# xmcd
#
# Track frame offsets:
#	183
#	11940
#	27020
#	39200
#	56163
#	73005
#	81945
#	92890
#	104905
#	118880
#	129478
#	137420
#	148910
#	161140
#	173220
#	188000
#
# Disc length: 2679 seconds
#
# Revision: 5
# Processed by: cddbd v1.5.2PL0 Copyright (c) Steve Scherf et al.
# Submitted via: EZCDAudioConverter 9.1.1.1
#
DISCID=ea0a7510
DTITLE=Various Artist - Country Love Songs - Vol. 2
DYEAR=2000
DGENRE=country
TTITLE0=Donna Frago - The Happiest Girl In The Whole
TTITLE1=Kenny Rogers - For The Good Times
TTITLE2=The Everly Brothers - Let It Me Be
TTITLE3=Lynn Anderson - Blue Bayou
TTITLE4=Willie Nelson - I Let My Mind Wonder
TTITLE5=Waylon Jennings - Mean Old Greyhound Bus
TTITLE6=Patsy Cline - I Cried All The Way to the altar
TTITLE7=Don Williams - On Her Way to be a woman
TTITLE8=Billie Jo Spears - Mr. Walker It's All Over
TTITLE9=Jonny Cash - Cold Cold Heart
TTITLE10=Freddy Fender - Wasted Days And Wasted Nights
TTITLE11=Oak Ridge Boys - No One Cared As Much
TTITLE12=Dolly Parton - Two Little Orphans
TTITLE13=Lynn Anderson - You Don't Have To Say You Love Me
TTITLE14=Willie Nelson - And So Will You My Love
TTITLE15=Kenny Rogers - Sleep Comes Easy
EXTD=
EXTT0=
EXTT1=
EXTT2=
EXTT3=
EXTT4=
EXTT5=
EXTT6=
EXTT7=
EXTT8=
EXTT9=
EXTT10=
EXTT11=
EXTT12=
EXTT13=
EXTT14=
EXTT15=
PLAYORDER=
